<svg xmlns="http://www.w3.org/2000/svg" xmlns:xlink="http://www.w3.org/1999/xlink" width="1080" zoomAndPan="magnify" viewBox="0 0 810 809.999993" height="1080" preserveAspectRatio="xMidYMid meet" version="1.0"><defs><g/></defs><g fill="#000000" fill-opacity="1"><g transform="translate(91.893061, 448.009825)"><g><path d="M 19.125 -81.109375 L 30.046875 -81.109375 L 47.359375 0 L 36.65625 0 L 32.953125 -20.421875 L 16.421875 -20.421875 L 12.515625 0 L 1.90625 0 Z M 31.4375 -28.546875 L 24.640625 -65.09375 L 17.921875 -28.546875 Z M 31.4375 -28.546875 "/></g></g></g><g fill="#000000" fill-opacity="1"><g transform="translate(162.882549, 448.009825)"><g><path d="M 6.3125 -81.109375 L 24.9375 -81.109375 C 32.28125 -81.109375 37.71875 -79.457031 41.25 -76.15625 C 44.789062 -72.851562 46.5625 -67.726562 46.5625 -60.78125 C 46.5625 -50.4375 42.691406 -44.726562 34.953125 -43.65625 C 39.753906 -42.519531 43.253906 -40.265625 45.453125 -36.890625 C 47.660156 -33.523438 48.765625 -28.9375 48.765625 -23.125 C 48.765625 -15.851562 47.046875 -10.179688 43.609375 -6.109375 C 40.171875 -2.035156 34.945312 0 27.9375 0 L 6.3125 0 Z M 24.328125 -47.265625 C 29.003906 -47.265625 32.242188 -48.28125 34.046875 -50.3125 C 35.847656 -52.351562 36.75 -55.84375 36.75 -60.78125 C 36.75 -64.382812 36.195312 -67.035156 35.09375 -68.734375 C 34 -70.441406 32.347656 -71.53125 30.140625 -72 C 27.941406 -72.46875 24.671875 -72.703125 20.328125 -72.703125 L 17.625 -72.703125 L 17.625 -47.265625 Z M 25.234375 -8.109375 C 28.578125 -8.109375 31.164062 -8.625 33 -9.65625 C 34.832031 -10.695312 36.113281 -12.285156 36.84375 -14.421875 C 37.582031 -16.554688 37.953125 -19.457031 37.953125 -23.125 C 37.953125 -28.332031 36.882812 -32.222656 34.75 -34.796875 C 32.613281 -37.367188 29.140625 -38.65625 24.328125 -38.65625 L 17.625 -38.65625 L 17.625 -8.109375 Z M 25.234375 -8.109375 "/></g></g></g><g fill="#000000" fill-opacity="1"><g transform="translate(237.075823, 448.009825)"><g><path d="M 0.703125 -6.203125 C 4.109375 -6.203125 6.628906 -6.519531 8.265625 -7.15625 C 9.898438 -7.789062 11.015625 -8.957031 11.609375 -10.65625 C 12.210938 -12.363281 12.515625 -14.988281 12.515625 -18.53125 L 12.515625 -81.109375 L 23.734375 -81.109375 L 23.734375 -18.328125 C 23.734375 -13.453125 23.234375 -9.5625 22.234375 -6.65625 C 21.234375 -3.75 19.445312 -1.59375 16.875 -0.1875 C 14.300781 1.207031 10.710938 1.90625 6.109375 1.90625 L 0.703125 1.90625 Z M 0.703125 -6.203125 "/></g></g></g><g fill="#000000" fill-opacity="1"><g transform="translate(288.942716, 448.009825)"><g><path d="M 6.3125 -81.109375 L 37.75 -81.109375 L 37.75 -72.703125 L 17.625 -72.703125 L 17.625 -45.859375 L 33.953125 -45.859375 L 33.953125 -37.859375 L 17.625 -37.859375 L 17.625 -8.109375 L 37.953125 -8.109375 L 37.953125 0 L 6.3125 0 Z M 6.3125 -81.109375 "/></g></g></g><g fill="#000000" fill-opacity="1"><g transform="translate(351.422155, 448.009825)"><g><path d="M 26.640625 0.90625 C 18.628906 0.90625 12.988281 -1.476562 9.71875 -6.25 C 6.445312 -11.03125 4.8125 -17.625 4.8125 -26.03125 L 4.8125 -54.671875 C 4.8125 -63.554688 6.410156 -70.300781 9.609375 -74.90625 C 12.816406 -79.507812 18.492188 -81.8125 26.640625 -81.8125 C 33.910156 -81.8125 39.128906 -79.84375 42.296875 -75.90625 C 45.472656 -71.96875 47.0625 -66.160156 47.0625 -58.484375 L 47.0625 -52.078125 L 36.34375 -52.078125 L 36.34375 -57.78125 C 36.34375 -61.519531 36.175781 -64.390625 35.84375 -66.390625 C 35.507812 -68.390625 34.660156 -69.988281 33.296875 -71.1875 C 31.929688 -72.394531 29.742188 -73 26.734375 -73 C 23.660156 -73 21.375 -72.347656 19.875 -71.046875 C 18.375 -69.742188 17.390625 -67.941406 16.921875 -65.640625 C 16.453125 -63.335938 16.21875 -60.25 16.21875 -56.375 L 16.21875 -24.234375 C 16.21875 -20.097656 16.550781 -16.859375 17.21875 -14.515625 C 17.882812 -12.179688 18.96875 -10.515625 20.46875 -9.515625 C 21.976562 -8.515625 24.066406 -8.015625 26.734375 -8.015625 C 29.609375 -8.015625 31.742188 -8.644531 33.140625 -9.90625 C 34.546875 -11.175781 35.429688 -12.910156 35.796875 -15.109375 C 36.160156 -17.316406 36.34375 -20.328125 36.34375 -24.140625 L 36.34375 -30.140625 L 47.0625 -30.140625 L 47.0625 -24.140625 C 47.0625 -16.054688 45.539062 -9.859375 42.5 -5.546875 C 39.46875 -1.242188 34.179688 0.90625 26.640625 0.90625 Z M 26.640625 0.90625 "/></g></g></g><g fill="#000000" fill-opacity="1"><g transform="translate(424.714374, 448.009825)"><g><path d="M 15.21875 -72.703125 L 1.5 -72.703125 L 1.5 -81.109375 L 39.859375 -81.109375 L 39.859375 -72.703125 L 26.53125 -72.703125 L 26.53125 0 L 15.21875 0 Z M 15.21875 -72.703125 "/></g></g></g><g fill="#000000" fill-opacity="1"><g transform="translate(487.794508, 448.009825)"><g/></g></g><g fill="#000000" fill-opacity="1"><g transform="translate(532.452872, 448.009825)"><g><path d="M 19.125 -81.109375 L 30.046875 -81.109375 L 47.359375 0 L 36.65625 0 L 32.953125 -20.421875 L 16.421875 -20.421875 L 12.515625 0 L 1.90625 0 Z M 31.4375 -28.546875 L 24.640625 -65.09375 L 17.921875 -28.546875 Z M 31.4375 -28.546875 "/></g></g></g><g fill="#000000" fill-opacity="1"><g transform="translate(603.442359, 448.009825)"><g><path d="M 26.640625 0.90625 C 18.628906 0.90625 12.988281 -1.476562 9.71875 -6.25 C 6.445312 -11.03125 4.8125 -17.625 4.8125 -26.03125 L 4.8125 -54.671875 C 4.8125 -63.554688 6.410156 -70.300781 9.609375 -74.90625 C 12.816406 -79.507812 18.492188 -81.8125 26.640625 -81.8125 C 33.910156 -81.8125 39.128906 -79.84375 42.296875 -75.90625 C 45.472656 -71.96875 47.0625 -66.160156 47.0625 -58.484375 L 47.0625 -52.078125 L 36.34375 -52.078125 L 36.34375 -57.78125 C 36.34375 -61.519531 36.175781 -64.390625 35.84375 -66.390625 C 35.507812 -68.390625 34.660156 -69.988281 33.296875 -71.1875 C 31.929688 -72.394531 29.742188 -73 26.734375 -73 C 23.660156 -73 21.375 -72.347656 19.875 -71.046875 C 18.375 -69.742188 17.390625 -67.941406 16.921875 -65.640625 C 16.453125 -63.335938 16.21875 -60.25 16.21875 -56.375 L 16.21875 -24.234375 C 16.21875 -20.097656 16.550781 -16.859375 17.21875 -14.515625 C 17.882812 -12.179688 18.96875 -10.515625 20.46875 -9.515625 C 21.976562 -8.515625 24.066406 -8.015625 26.734375 -8.015625 C 29.609375 -8.015625 31.742188 -8.644531 33.140625 -9.90625 C 34.546875 -11.175781 35.429688 -12.910156 35.796875 -15.109375 C 36.160156 -17.316406 36.34375 -20.328125 36.34375 -24.140625 L 36.34375 -30.140625 L 47.0625 -30.140625 L 47.0625 -24.140625 C 47.0625 -16.054688 45.539062 -9.859375 42.5 -5.546875 C 39.46875 -1.242188 34.179688 0.90625 26.640625 0.90625 Z M 26.640625 0.90625 "/></g></g></g><g fill="#000000" fill-opacity="1"><g transform="translate(676.734604, 448.009825)"><g><path d="M 15.21875 -72.703125 L 1.5 -72.703125 L 1.5 -81.109375 L 39.859375 -81.109375 L 39.859375 -72.703125 L 26.53125 -72.703125 L 26.53125 0 L 15.21875 0 Z M 15.21875 -72.703125 "/></g></g></g></svg>